<?xml version="1.0" encoding="UTF-8"?>
<svg xmlns="http://www.w3.org/2000/svg" xmlns:xlink="http://www.w3.org/1999/xlink" width="104pt" height="40pt" viewBox="0 0 104 40" version="1.1">
<g id="surface1">
<path style=" stroke:none;fill-rule:evenodd;fill:rgb(14.117647%,20%,17.254902%);fill-opacity:1;" d="M 29.46875 8.886719 C 31.328125 8.925781 32.625 9.746094 33.363281 11.347656 C 33.878906 12.804688 33.609375 14.117188 32.554688 15.28125 C 27.347656 20.199219 22.144531 25.117188 16.9375 30.035156 C 15.691406 31.039062 14.289062 31.289062 12.734375 30.78125 C 11.335938 30.207031 10.5 29.207031 10.226562 27.785156 C 10.074219 26.605469 10.410156 25.570312 11.226562 24.679688 C 16.449219 19.746094 21.667969 14.816406 26.886719 9.882812 C 27.625 9.273438 28.484375 8.941406 29.46875 8.886719 Z M 29.46875 8.886719 "/>
<path style=" stroke:none;fill-rule:evenodd;fill:rgb(99.607843%,49.803922%,35.294118%);fill-opacity:1;" d="M 14.097656 9.066406 C 15.375 8.988281 16.5 9.335938 17.472656 10.105469 C 18.453125 11.035156 19.4375 11.960938 20.417969 12.890625 C 18.300781 14.894531 16.179688 16.894531 14.058594 18.890625 C 13.074219 17.972656 12.097656 17.050781 11.121094 16.128906 C 10.148438 15.027344 9.8125 13.769531 10.117188 12.355469 C 10.476562 11.015625 11.3125 10.042969 12.625 9.441406 C 13.097656 9.242188 13.589844 9.117188 14.097656 9.066406 Z M 14.097656 9.066406 "/>
<path style=" stroke:none;fill-rule:evenodd;fill:rgb(14.117647%,20%,17.254902%);fill-opacity:1;" d="M 68.980469 12.699219 C 69.8125 12.699219 70.644531 12.699219 71.480469 12.699219 C 71.480469 16.972656 71.480469 21.25 71.480469 25.527344 C 70.644531 25.527344 69.8125 25.527344 68.980469 25.527344 C 68.988281 25.304688 68.980469 25.082031 68.960938 24.859375 C 68.226562 25.402344 67.394531 25.707031 66.460938 25.777344 C 65.136719 25.917969 63.96875 25.582031 62.960938 24.769531 C 61.800781 23.792969 61.234375 22.566406 61.253906 21.089844 C 61.269531 19.226562 62.117188 17.816406 63.792969 16.863281 C 64.644531 16.441406 65.550781 16.285156 66.503906 16.398438 C 67.429688 16.476562 68.253906 16.789062 68.96875 17.335938 C 68.980469 15.789062 68.984375 14.246094 68.980469 12.699219 Z M 66.058594 18.425781 C 67.21875 18.398438 68.089844 18.855469 68.671875 19.796875 C 69.015625 20.511719 69.070312 21.242188 68.84375 21.996094 C 68.578125 22.710938 68.085938 23.222656 67.359375 23.539062 C 66.597656 23.828125 65.84375 23.816406 65.097656 23.5 C 64.3125 23.101562 63.855469 22.488281 63.71875 21.652344 C 63.59375 20.929688 63.707031 20.246094 64.0625 19.597656 C 64.523438 18.894531 65.1875 18.507812 66.058594 18.425781 Z M 66.058594 18.425781 "/>
<path style=" stroke:none;fill-rule:evenodd;fill:rgb(14.117647%,20%,17.254902%);fill-opacity:1;" d="M 43.664062 16.367188 C 44.726562 16.304688 45.714844 16.523438 46.632812 17.023438 C 46.789062 17.121094 46.941406 17.226562 47.089844 17.335938 C 47.101562 17.101562 47.105469 16.867188 47.101562 16.632812 C 47.929688 16.625 48.761719 16.632812 49.585938 16.652344 C 49.597656 19.609375 49.601562 22.570312 49.597656 25.527344 C 48.765625 25.527344 47.933594 25.527344 47.101562 25.527344 C 47.109375 25.304688 47.101562 25.082031 47.078125 24.859375 C 46.171875 25.507812 45.148438 25.820312 44.003906 25.808594 C 42.640625 25.785156 41.503906 25.296875 40.601562 24.335938 C 39.632812 23.25 39.226562 21.992188 39.382812 20.566406 C 39.550781 19.003906 40.332031 17.804688 41.722656 16.964844 C 42.324219 16.625 42.972656 16.425781 43.664062 16.367188 Z M 44.175781 18.425781 C 45.320312 18.402344 46.1875 18.851562 46.769531 19.777344 C 47.042969 20.3125 47.144531 20.878906 47.070312 21.472656 C 46.925781 22.457031 46.371094 23.152344 45.414062 23.558594 C 44.75 23.808594 44.082031 23.816406 43.40625 23.582031 C 42.414062 23.15625 41.875 22.425781 41.796875 21.390625 C 41.710938 20.628906 41.902344 19.933594 42.371094 19.3125 C 42.847656 18.785156 43.445312 18.492188 44.175781 18.425781 Z M 44.175781 18.425781 "/>
<path style=" stroke:none;fill-rule:evenodd;fill:rgb(14.117647%,20%,17.254902%);fill-opacity:1;" d="M 80.335938 16.652344 C 81.164062 16.652344 81.988281 16.652344 82.8125 16.652344 C 82.8125 19.609375 82.8125 22.570312 82.8125 25.527344 C 81.988281 25.527344 81.164062 25.527344 80.335938 25.527344 C 80.34375 25.304688 80.335938 25.082031 80.316406 24.859375 C 79.339844 25.550781 78.234375 25.863281 77.007812 25.800781 C 75.773438 25.71875 74.738281 25.25 73.902344 24.398438 C 73.015625 23.460938 72.585938 22.363281 72.609375 21.097656 C 72.609375 19.347656 73.371094 17.980469 74.894531 17.003906 C 75.992188 16.386719 77.164062 16.210938 78.417969 16.480469 C 79.132812 16.617188 79.769531 16.902344 80.328125 17.335938 C 80.335938 17.109375 80.339844 16.878906 80.335938 16.652344 Z M 77.414062 18.425781 C 78.394531 18.382812 79.1875 18.726562 79.792969 19.457031 C 80.269531 20.117188 80.433594 20.84375 80.285156 21.632812 C 80.097656 22.496094 79.589844 23.125 78.757812 23.519531 C 78.0625 23.804688 77.359375 23.824219 76.644531 23.582031 C 75.640625 23.144531 75.101562 22.402344 75.03125 21.351562 C 74.960938 20.589844 75.160156 19.90625 75.628906 19.292969 C 76.101562 18.777344 76.695312 18.488281 77.414062 18.425781 Z M 77.414062 18.425781 "/>
<path style=" stroke:none;fill-rule:evenodd;fill:rgb(14.117647%,20%,17.254902%);fill-opacity:1;" d="M 83.964844 16.609375 C 84.949219 16.609375 85.929688 16.609375 86.914062 16.621094 C 87.589844 17.613281 88.269531 18.605469 88.949219 19.597656 C 89.640625 18.605469 90.328125 17.613281 91.011719 16.621094 C 91.992188 16.609375 92.972656 16.609375 93.957031 16.609375 C 93.960938 16.632812 93.957031 16.652344 93.945312 16.671875 C 92.894531 18.175781 91.851562 19.6875 90.820312 21.199219 C 91.855469 22.640625 92.902344 24.078125 93.957031 25.507812 C 92.96875 25.53125 91.980469 25.535156 90.988281 25.515625 C 90.308594 24.585938 89.628906 23.65625 88.949219 22.722656 C 88.28125 23.65625 87.609375 24.585938 86.933594 25.515625 C 85.945312 25.535156 84.957031 25.53125 83.964844 25.507812 C 85.019531 24.078125 86.066406 22.640625 87.105469 21.199219 C 86.070312 19.6875 85.027344 18.175781 83.976562 16.671875 C 83.964844 16.652344 83.964844 16.632812 83.964844 16.609375 Z M 83.964844 16.609375 "/>
<path style=" stroke:none;fill-rule:evenodd;fill:rgb(14.117647%,20%,17.254902%);fill-opacity:1;" d="M 57.625 20.867188 C 57.644531 19.464844 57.652344 18.058594 57.644531 16.652344 C 58.472656 16.652344 59.296875 16.652344 60.121094 16.652344 C 60.121094 19.609375 60.121094 22.570312 60.121094 25.527344 C 59.296875 25.527344 58.472656 25.527344 57.644531 25.527344 C 57.652344 25.265625 57.644531 25.003906 57.625 24.742188 C 57.613281 24.742188 57.605469 24.75 57.601562 24.761719 C 57.042969 25.273438 56.375 25.597656 55.597656 25.730469 C 54.695312 25.890625 53.820312 25.804688 52.972656 25.476562 C 51.769531 24.875 51.089844 23.929688 50.933594 22.640625 C 50.902344 20.640625 50.890625 18.636719 50.902344 16.632812 C 51.734375 16.632812 52.566406 16.632812 53.398438 16.632812 C 53.394531 18.359375 53.398438 20.085938 53.410156 21.816406 C 53.441406 22.488281 53.746094 23.015625 54.316406 23.398438 C 54.78125 23.628906 55.269531 23.695312 55.789062 23.601562 C 56.523438 23.464844 57.03125 23.074219 57.316406 22.421875 C 57.511719 21.921875 57.617188 21.402344 57.625 20.867188 Z M 57.625 20.867188 "/>
<path style=" stroke:none;fill-rule:evenodd;fill:rgb(34.901961%,40%,38.039216%);fill-opacity:1;" d="M 60.121094 16.652344 C 59.296875 16.652344 58.472656 16.652344 57.644531 16.652344 C 57.652344 18.058594 57.644531 19.464844 57.625 20.867188 C 57.625 19.457031 57.625 18.042969 57.625 16.632812 C 58.460938 16.625 59.292969 16.632812 60.121094 16.652344 Z M 60.121094 16.652344 "/>
<path style=" stroke:none;fill-rule:evenodd;fill:rgb(35.294118%,40%,38.431373%);fill-opacity:1;" d="M 80.335938 16.652344 C 81.167969 16.632812 82 16.625 82.835938 16.632812 C 82.84375 19.601562 82.835938 22.566406 82.8125 25.527344 C 82.8125 22.570312 82.8125 19.609375 82.8125 16.652344 C 81.988281 16.652344 81.164062 16.652344 80.335938 16.652344 Z M 80.335938 16.652344 "/>
<path style=" stroke:none;fill-rule:evenodd;fill:rgb(0%,67.843137%,93.72549%);fill-opacity:1;" d="M 28.871094 23.148438 C 30.667969 23.214844 31.960938 24.007812 32.746094 25.527344 C 33.28125 26.792969 33.191406 28.015625 32.46875 29.199219 C 31.636719 30.390625 30.457031 31.015625 28.933594 31.074219 C 27.203125 31.011719 25.929688 30.261719 25.125 28.816406 C 24.597656 27.683594 24.597656 26.546875 25.125 25.40625 C 25.917969 23.988281 27.167969 23.234375 28.871094 23.148438 Z M 28.871094 23.148438 "/>
<path style=" stroke:none;fill-rule:evenodd;fill:rgb(35.294118%,40%,38.431373%);fill-opacity:1;" d="M 57.601562 24.761719 C 57.605469 24.75 57.613281 24.742188 57.625 24.742188 C 57.644531 25.003906 57.652344 25.265625 57.644531 25.527344 C 57.632812 25.269531 57.617188 25.015625 57.601562 24.761719 Z M 57.601562 24.761719 "/>
</g>
</svg>
